<svg xmlns="http://www.w3.org/2000/svg" version="1.1" width="1195" height="1777" preserveAspectRatio="none" style="stroke-width: 3px; font-size: 21px; font-family: sans-serif; shape-rendering: crispedges;" id="SVG" viewBox="-20 -51 1448.545166015625 1859"><rect id="backgroundRect" x="-20" y="-51" width="1448.545166015625" height="1859" fill="white"></rect><path d="M 1195 1777 H 1125.4018637157833 V 1768.0252525252524" fill="none" stroke="black" stroke-width="3" class="treeEdge" vector-effect="non-scaling-stroke" id="node#197"></path><path d="M 1195 1759.050505050505 H 1125.4018637157833 V 1768.0252525252524" fill="none" stroke="black" stroke-width="3" class="treeEdge" vector-effect="non-scaling-stroke" id="node#198"></path><path d="M 1195 1741.1010101010102 H 1055.8037274315668 V 1754.5631313131312" fill="none" stroke="black" stroke-width="3" class="treeEdge" vector-effect="non-scaling-stroke" id="node#195"></path><path d="M 1195 1723.1515151515152 H 1125.4018637157833 V 1714.1767676767677" fill="none" stroke="black" stroke-width="3" class="treeEdge" vector-effect="non-scaling-stroke" id="node#192"></path><path d="M 1195 1705.20202020202 H 1125.4018637157833 V 1714.1767676767677" fill="none" stroke="black" stroke-width="3" class="treeEdge" vector-effect="non-scaling-stroke" id="node#193"></path><path d="M 1195 1687.2525252525252 H 1125.4018637157833 V 1678.2777777777778" fill="none" stroke="black" stroke-width="3" class="treeEdge" vector-effect="non-scaling-stroke" id="node#188"></path><path d="M 1195 1669.3030303030305 H 1125.4018637157833 V 1678.2777777777778" fill="none" stroke="black" stroke-width="3" class="treeEdge" vector-effect="non-scaling-stroke" id="node#189"></path><path d="M 1195 1651.3535353535353 H 1055.8037274315668 V 1664.8156565656566" fill="none" stroke="black" stroke-width="3" class="treeEdge" vector-effect="non-scaling-stroke" id="node#186"></path><path d="M 1195 1633.4040404040404 H 986.2055911473501 V 1649.1098484848485" fill="none" stroke="black" stroke-width="3" class="treeEdge" vector-effect="non-scaling-stroke" id="node#184"></path><path d="M 1195 1615.4545454545455 H 1125.4018637157833 V 1606.479797979798" fill="none" stroke="black" stroke-width="3" class="treeEdge" vector-effect="non-scaling-stroke" id="node#180"></path><path d="M 1195 1597.5050505050506 H 1125.4018637157833 V 1606.479797979798" fill="none" stroke="black" stroke-width="3" class="treeEdge" vector-effect="non-scaling-stroke" id="node#181"></path><path d="M 1195 1579.5555555555554 H 1125.4018637157833 V 1570.580808080808" fill="none" stroke="black" stroke-width="3" class="treeEdge" vector-effect="non-scaling-stroke" id="node#176"></path><path d="M 1195 1561.6060606060605 H 1125.4018637157833 V 1570.580808080808" fill="none" stroke="black" stroke-width="3" class="treeEdge" vector-effect="non-scaling-stroke" id="node#177"></path><path d="M 1195 1543.6565656565658 H 707.8130460104834 V 1576.750946969697" fill="none" stroke="black" stroke-width="3" class="treeEdge" vector-effect="non-scaling-stroke" id="node#173"></path><path d="M 1195 1525.7070707070707 H 638.2149097262667 V 1551.2290088383838" fill="none" stroke="black" stroke-width="3" class="treeEdge" vector-effect="non-scaling-stroke" id="node#171"></path><path d="M 1195 1507.7575757575758 H 1125.4018637157833 V 1498.7828282828282" fill="none" stroke="black" stroke-width="3" class="treeEdge" vector-effect="non-scaling-stroke" id="node#168"></path><path d="M 1195 1489.8080808080808 H 1125.4018637157833 V 1498.7828282828282" fill="none" stroke="black" stroke-width="3" class="treeEdge" vector-effect="non-scaling-stroke" id="node#169"></path><path d="M 1195 1471.858585858586 H 1055.8037274315668 V 1485.3207070707072" fill="none" stroke="black" stroke-width="3" class="treeEdge" vector-effect="non-scaling-stroke" id="node#166"></path><path d="M 1195 1453.9090909090908 H 1125.4018637157833 V 1444.9343434343434" fill="none" stroke="black" stroke-width="3" class="treeEdge" vector-effect="non-scaling-stroke" id="node#162"></path><path d="M 1195 1435.9595959595958 H 1125.4018637157833 V 1444.9343434343434" fill="none" stroke="black" stroke-width="3" class="treeEdge" vector-effect="non-scaling-stroke" id="node#163"></path><path d="M 1195 1418.0101010101012 H 1055.8037274315668 V 1431.4722222222222" fill="none" stroke="black" stroke-width="3" class="treeEdge" vector-effect="non-scaling-stroke" id="node#160"></path><path d="M 1195 1400.060606060606 H 986.2055911473501 V 1415.766414141414" fill="none" stroke="black" stroke-width="3" class="treeEdge" vector-effect="non-scaling-stroke" id="node#158"></path><path d="M 1195 1382.111111111111 H 916.6074548631334 V 1398.9387626262626" fill="none" stroke="black" stroke-width="3" class="treeEdge" vector-effect="non-scaling-stroke" id="node#156"></path><path d="M 1195 1364.1616161616162 H 847.0093185789167 V 1381.5501893939395" fill="none" stroke="black" stroke-width="3" class="treeEdge" vector-effect="non-scaling-stroke" id="node#154"></path><path d="M 1195 1346.2121212121212 H 1125.4018637157833 V 1337.2373737373737" fill="none" stroke="black" stroke-width="3" class="treeEdge" vector-effect="non-scaling-stroke" id="node#148"></path><path d="M 1195 1328.262626262626 H 1125.4018637157833 V 1337.2373737373737" fill="none" stroke="black" stroke-width="3" class="treeEdge" vector-effect="non-scaling-stroke" id="node#149"></path><path d="M 1195 1310.3131313131312 H 1125.4018637157833 V 1301.3383838383838" fill="none" stroke="black" stroke-width="3" class="treeEdge" vector-effect="non-scaling-stroke" id="node#151"></path><path d="M 1195 1292.3636363636365 H 1125.4018637157833 V 1301.3383838383838" fill="none" stroke="black" stroke-width="3" class="treeEdge" vector-effect="non-scaling-stroke" id="node#152"></path><path d="M 1195 1274.4141414141413 H 1125.4018637157833 V 1265.439393939394" fill="none" stroke="black" stroke-width="3" class="treeEdge" vector-effect="non-scaling-stroke" id="node#143"></path><path d="M 1195 1256.4646464646464 H 1125.4018637157833 V 1265.439393939394" fill="none" stroke="black" stroke-width="3" class="treeEdge" vector-effect="non-scaling-stroke" id="node#144"></path><path d="M 1195 1238.5151515151515 H 1055.8037274315668 V 1251.9772727272727" fill="none" stroke="black" stroke-width="3" class="treeEdge" vector-effect="non-scaling-stroke" id="node#141"></path><path d="M 1195 1220.5656565656566 H 986.2055911473501 V 1236.2714646464647" fill="none" stroke="black" stroke-width="3" class="treeEdge" vector-effect="non-scaling-stroke" id="node#139"></path><path d="M 1195 1202.6161616161614 H 1125.4018637157833 V 1193.641414141414" fill="none" stroke="black" stroke-width="3" class="treeEdge" vector-effect="non-scaling-stroke" id="node#131"></path><path d="M 1195 1184.6666666666667 H 1125.4018637157833 V 1193.641414141414" fill="none" stroke="black" stroke-width="3" class="treeEdge" vector-effect="non-scaling-stroke" id="node#132"></path><path d="M 1195 1166.7171717171718 H 1125.4018637157833 V 1157.7424242424242" fill="none" stroke="black" stroke-width="3" class="treeEdge" vector-effect="non-scaling-stroke" id="node#134"></path><path d="M 1195 1148.7676767676767 H 1125.4018637157833 V 1157.7424242424242" fill="none" stroke="black" stroke-width="3" class="treeEdge" vector-effect="non-scaling-stroke" id="node#135"></path><path d="M 1195 1130.8181818181818 H 1125.4018637157833 V 1121.8434343434342" fill="none" stroke="black" stroke-width="3" class="treeEdge" vector-effect="non-scaling-stroke" id="node#127"></path><path d="M 1195 1112.8686868686868 H 1125.4018637157833 V 1121.8434343434342" fill="none" stroke="black" stroke-width="3" class="treeEdge" vector-effect="non-scaling-stroke" id="node#128"></path><path d="M 1195 1094.919191919192 H 1055.8037274315668 V 1097.9107744107744" fill="none" stroke="black" stroke-width="3" class="treeEdge" vector-effect="non-scaling-stroke" id="node#123"></path><path d="M 1195 1076.969696969697 H 1055.8037274315668 V 1097.9107744107744" fill="none" stroke="black" stroke-width="3" class="treeEdge" vector-effect="non-scaling-stroke" id="node#125"></path><path d="M 1195 1059.020202020202 H 1125.4018637157833 V 1050.0454545454545" fill="none" stroke="black" stroke-width="3" class="treeEdge" vector-effect="non-scaling-stroke" id="node#119"></path><path d="M 1195 1041.0707070707072 H 1125.4018637157833 V 1050.0454545454545" fill="none" stroke="black" stroke-width="3" class="treeEdge" vector-effect="non-scaling-stroke" id="node#120"></path><path d="M 1195 1023.121212121212 H 1125.4018637157833 V 1014.1464646464647" fill="none" stroke="black" stroke-width="3" class="treeEdge" vector-effect="non-scaling-stroke" id="node#110"></path><path d="M 1195 1005.1717171717171 H 1125.4018637157833 V 1014.1464646464647" fill="none" stroke="black" stroke-width="3" class="treeEdge" vector-effect="non-scaling-stroke" id="node#111"></path><path d="M 1195 987.2222222222223 H 1055.8037274315668 V 1000.6843434343434" fill="none" stroke="black" stroke-width="3" class="treeEdge" vector-effect="non-scaling-stroke" id="node#108"></path><path d="M 1195 969.2727272727273 H 1125.4018637157833 V 960.2979797979799" fill="none" stroke="black" stroke-width="3" class="treeEdge" vector-effect="non-scaling-stroke" id="node#104"></path><path d="M 1195 951.3232323232323 H 1125.4018637157833 V 960.2979797979799" fill="none" stroke="black" stroke-width="3" class="treeEdge" vector-effect="non-scaling-stroke" id="node#105"></path><path d="M 1195 933.3737373737374 H 986.2055911473501 V 941.4510101010102" fill="none" stroke="black" stroke-width="3" class="treeEdge" vector-effect="non-scaling-stroke" id="node#113"></path><path d="M 1195 915.4242424242424 H 986.2055911473501 V 941.4510101010102" fill="none" stroke="black" stroke-width="3" class="treeEdge" vector-effect="non-scaling-stroke" id="node#115"></path><path d="M 1195 897.4747474747473 H 986.2055911473501 V 941.4510101010102" fill="none" stroke="black" stroke-width="3" class="treeEdge" vector-effect="non-scaling-stroke" id="node#116"></path><path d="M 1195 879.5252525252524 H 916.6074548631334 V 910.4881313131314" fill="none" stroke="black" stroke-width="3" class="treeEdge" vector-effect="non-scaling-stroke" id="node#101"></path><path d="M 1195 861.5757575757576 H 777.4111822947001 V 931.7657617845117" fill="none" stroke="black" stroke-width="3" class="treeEdge" vector-effect="non-scaling-stroke" id="node#98"></path><path d="M 1195 843.6262626262626 H 707.8130460104834 V 887.6960122053871" fill="none" stroke="black" stroke-width="3" class="treeEdge" vector-effect="non-scaling-stroke" id="node#96"></path><path d="M 1195 825.6767676767677 H 638.2149097262667 V 856.6863899410774" fill="none" stroke="black" stroke-width="3" class="treeEdge" vector-effect="non-scaling-stroke" id="node#94"></path><path d="M 1195 807.7272727272727 H 1125.4018637157833 V 798.7525252525253" fill="none" stroke="black" stroke-width="3" class="treeEdge" vector-effect="non-scaling-stroke" id="node#88"></path><path d="M 1195 789.7777777777777 H 1125.4018637157833 V 798.7525252525253" fill="none" stroke="black" stroke-width="3" class="treeEdge" vector-effect="non-scaling-stroke" id="node#89"></path><path d="M 1195 771.8282828282829 H 1125.4018637157833 V 762.8535353535353" fill="none" stroke="black" stroke-width="3" class="treeEdge" vector-effect="non-scaling-stroke" id="node#91"></path><path d="M 1195 753.8787878787878 H 1125.4018637157833 V 762.8535353535353" fill="none" stroke="black" stroke-width="3" class="treeEdge" vector-effect="non-scaling-stroke" id="node#92"></path><path d="M 1195 735.929292929293 H 499.0186371578335 V 777.3370015256735" fill="none" stroke="black" stroke-width="3" class="treeEdge" vector-effect="non-scaling-stroke" id="node#84"></path><path d="M 1195 717.979797979798 H 1125.4018637157833 V 709.0050505050506" fill="none" stroke="black" stroke-width="3" class="treeEdge" vector-effect="non-scaling-stroke" id="node#80"></path><path d="M 1195 700.030303030303 H 1125.4018637157833 V 709.0050505050506" fill="none" stroke="black" stroke-width="3" class="treeEdge" vector-effect="non-scaling-stroke" id="node#81"></path><path d="M 1195 682.0808080808081 H 1055.8037274315668 V 695.5429292929293" fill="none" stroke="black" stroke-width="3" class="treeEdge" vector-effect="non-scaling-stroke" id="node#78"></path><path d="M 1195 664.131313131313 H 986.2055911473501 V 679.8371212121212" fill="none" stroke="black" stroke-width="3" class="treeEdge" vector-effect="non-scaling-stroke" id="node#76"></path><path d="M 1195 646.1818181818182 H 916.6074548631334 V 663.0094696969696" fill="none" stroke="black" stroke-width="3" class="treeEdge" vector-effect="non-scaling-stroke" id="node#74"></path><path d="M 1195 628.2323232323231 H 1125.4018637157833 V 619.2575757575756" fill="none" stroke="black" stroke-width="3" class="treeEdge" vector-effect="non-scaling-stroke" id="node#70"></path><path d="M 1195 610.2828282828283 H 1125.4018637157833 V 619.2575757575756" fill="none" stroke="black" stroke-width="3" class="treeEdge" vector-effect="non-scaling-stroke" id="node#71"></path><path d="M 1195 592.3333333333334 H 1055.8037274315668 V 605.7954545454544" fill="none" stroke="black" stroke-width="3" class="treeEdge" vector-effect="non-scaling-stroke" id="node#68"></path><path d="M 1195 574.3838383838383 H 986.2055911473501 V 590.0896464646463" fill="none" stroke="black" stroke-width="3" class="treeEdge" vector-effect="non-scaling-stroke" id="node#66"></path><path d="M 1195 556.4343434343434 H 916.6074548631334 V 573.2619949494949" fill="none" stroke="black" stroke-width="3" class="treeEdge" vector-effect="non-scaling-stroke" id="node#64"></path><path d="M 1195 538.4848484848484 H 1125.4018637157833 V 529.510101010101" fill="none" stroke="black" stroke-width="3" class="treeEdge" vector-effect="non-scaling-stroke" id="node#55"></path><path d="M 1195 520.5353535353536 H 1125.4018637157833 V 529.510101010101" fill="none" stroke="black" stroke-width="3" class="treeEdge" vector-effect="non-scaling-stroke" id="node#56"></path><path d="M 1195 502.58585858585866 H 1055.8037274315668 V 516.0479797979799" fill="none" stroke="black" stroke-width="3" class="treeEdge" vector-effect="non-scaling-stroke" id="node#53"></path><path d="M 1195 484.6363636363636 H 1125.4018637157833 V 475.6616161616163" fill="none" stroke="black" stroke-width="3" class="treeEdge" vector-effect="non-scaling-stroke" id="node#60"></path><path d="M 1195 466.6868686868687 H 1125.4018637157833 V 475.6616161616163" fill="none" stroke="black" stroke-width="3" class="treeEdge" vector-effect="non-scaling-stroke" id="node#61"></path><path d="M 1195 448.7373737373737 H 1055.8037274315668 V 462.1994949494951" fill="none" stroke="black" stroke-width="3" class="treeEdge" vector-effect="non-scaling-stroke" id="node#58"></path><path d="M 1195 430.7878787878788 H 1125.4018637157833 V 421.81313131313146" fill="none" stroke="black" stroke-width="3" class="treeEdge" vector-effect="non-scaling-stroke" id="node#49"></path><path d="M 1195 412.83838383838395 H 1125.4018637157833 V 421.81313131313146" fill="none" stroke="black" stroke-width="3" class="treeEdge" vector-effect="non-scaling-stroke" id="node#50"></path><path d="M 1195 394.88888888888886 H 1055.8037274315668 V 408.3510101010103" fill="none" stroke="black" stroke-width="3" class="treeEdge" vector-effect="non-scaling-stroke" id="node#47"></path><path d="M 1195 376.939393939394 H 986.2055911473501 V 392.64520202020213" fill="none" stroke="black" stroke-width="3" class="treeEdge" vector-effect="non-scaling-stroke" id="node#45"></path><path d="M 1195 358.98989898989896 H 1125.4018637157833 V 350.0151515151516" fill="none" stroke="black" stroke-width="3" class="treeEdge" vector-effect="non-scaling-stroke" id="node#41"></path><path d="M 1195 341.04040404040404 H 1125.4018637157833 V 350.0151515151516" fill="none" stroke="black" stroke-width="3" class="treeEdge" vector-effect="non-scaling-stroke" id="node#42"></path><path d="M 1195 323.090909090909 H 1055.8037274315668 V 336.5530303030304" fill="none" stroke="black" stroke-width="3" class="treeEdge" vector-effect="non-scaling-stroke" id="node#39"></path><path d="M 1195 305.14141414141415 H 1125.4018637157833 V 296.1666666666668" fill="none" stroke="black" stroke-width="3" class="treeEdge" vector-effect="non-scaling-stroke" id="node#35"></path><path d="M 1195 287.1919191919193 H 1125.4018637157833 V 296.1666666666668" fill="none" stroke="black" stroke-width="3" class="treeEdge" vector-effect="non-scaling-stroke" id="node#36"></path><path d="M 1195 269.2424242424242 H 1055.8037274315668 V 282.7045454545456" fill="none" stroke="black" stroke-width="3" class="treeEdge" vector-effect="non-scaling-stroke" id="node#33"></path><path d="M 1195 251.29292929292933 H 151.02795573675022 V 390.893563277633" fill="none" stroke="black" stroke-width="3" class="treeEdge" vector-effect="non-scaling-stroke" id="node#29"></path><path d="M 1195 233.34343434343427 H 1125.4018637157833 V 224.36868686868692" fill="none" stroke="black" stroke-width="3" class="treeEdge" vector-effect="non-scaling-stroke" id="node#26"></path><path d="M 1195 215.3939393939394 H 1125.4018637157833 V 224.36868686868692" fill="none" stroke="black" stroke-width="3" class="treeEdge" vector-effect="non-scaling-stroke" id="node#27"></path><path d="M 1195 197.44444444444454 H 1055.8037274315668 V 210.90656565656573" fill="none" stroke="black" stroke-width="3" class="treeEdge" vector-effect="non-scaling-stroke" id="node#24"></path><path d="M 1195 179.49494949494948 H 1125.4018637157833 V 170.52020202020213" fill="none" stroke="black" stroke-width="3" class="treeEdge" vector-effect="non-scaling-stroke" id="node#21"></path><path d="M 1195 161.5454545454546 H 1125.4018637157833 V 170.52020202020213" fill="none" stroke="black" stroke-width="3" class="treeEdge" vector-effect="non-scaling-stroke" id="node#22"></path><path d="M 1195 143.59595959595953 H 916.6074548631334 V 167.15467171717174" fill="none" stroke="black" stroke-width="3" class="treeEdge" vector-effect="non-scaling-stroke" id="node#18"></path><path d="M 1195 125.64646464646466 H 1125.4018637157833 V 116.67171717171713" fill="none" stroke="black" stroke-width="3" class="treeEdge" vector-effect="non-scaling-stroke" id="node#15"></path><path d="M 1195 107.6969696969696 H 1125.4018637157833 V 116.67171717171713" fill="none" stroke="black" stroke-width="3" class="treeEdge" vector-effect="non-scaling-stroke" id="node#16"></path><path d="M 1195 89.74747474747474 H 1055.8037274315668 V 103.20959595959593" fill="none" stroke="black" stroke-width="3" class="treeEdge" vector-effect="non-scaling-stroke" id="node#13"></path><path d="M 1195 71.79797979797986 H 777.4111822947001 V 103.4900568181818" fill="none" stroke="black" stroke-width="3" class="treeEdge" vector-effect="non-scaling-stroke" id="node#10"></path><path d="M 1195 53.8484848484848 H 1125.4018637157833 V 44.87373737373746" fill="none" stroke="black" stroke-width="3" class="treeEdge" vector-effect="non-scaling-stroke" id="node#7"></path><path d="M 1195 35.89898989898993 H 1125.4018637157833 V 44.87373737373746" fill="none" stroke="black" stroke-width="3" class="treeEdge" vector-effect="non-scaling-stroke" id="node#8"></path><path d="M 1195 17.949494949494866 H 1055.8037274315668 V 31.411616161616266" fill="none" stroke="black" stroke-width="3" class="treeEdge" vector-effect="non-scaling-stroke" id="node#5"></path><path d="M 1195 0 H 11.831683168316975 V 114.58609994188299" fill="none" stroke="black" stroke-width="3" class="treeEdge" vector-effect="non-scaling-stroke" id="node#1"></path><path d="M 1125.4018637157833 1768.0252525252524 H 1055.8037274315668 V 1754.5631313131312" fill="none" stroke="black" stroke-width="3" class="treeEdge" vector-effect="non-scaling-stroke" id="node#196"></path><path d="M 1055.8037274315668 1754.5631313131312 H 986.2055911473501 V 1734.3699494949494" fill="none" stroke="black" stroke-width="3" class="treeEdge" vector-effect="non-scaling-stroke" id="node#194"></path><path d="M 1125.4018637157833 1714.1767676767677 H 986.2055911473501 V 1734.3699494949494" fill="none" stroke="black" stroke-width="3" class="treeEdge" vector-effect="non-scaling-stroke" id="node#191"></path><path d="M 986.2055911473501 1734.3699494949494 H 916.6074548631334 V 1691.7398989898988" fill="none" stroke="black" stroke-width="3" class="treeEdge" vector-effect="non-scaling-stroke" id="node#190"></path><path d="M 1125.4018637157833 1678.2777777777778 H 1055.8037274315668 V 1664.8156565656566" fill="none" stroke="black" stroke-width="3" class="treeEdge" vector-effect="non-scaling-stroke" id="node#187"></path><path d="M 1055.8037274315668 1664.8156565656566 H 986.2055911473501 V 1649.1098484848485" fill="none" stroke="black" stroke-width="3" class="treeEdge" vector-effect="non-scaling-stroke" id="node#185"></path><path d="M 986.2055911473501 1649.1098484848485 H 916.6074548631334 V 1691.7398989898988" fill="none" stroke="black" stroke-width="3" class="treeEdge" vector-effect="non-scaling-stroke" id="node#183"></path><path d="M 916.6074548631334 1691.7398989898988 H 847.0093185789167 V 1649.1098484848485" fill="none" stroke="black" stroke-width="3" class="treeEdge" vector-effect="non-scaling-stroke" id="node#182"></path><path d="M 1125.4018637157833 1606.479797979798 H 847.0093185789167 V 1649.1098484848485" fill="none" stroke="black" stroke-width="3" class="treeEdge" vector-effect="non-scaling-stroke" id="node#179"></path><path d="M 847.0093185789167 1649.1098484848485 H 777.4111822947001 V 1609.8453282828282" fill="none" stroke="black" stroke-width="3" class="treeEdge" vector-effect="non-scaling-stroke" id="node#178"></path><path d="M 1125.4018637157833 1570.580808080808 H 777.4111822947001 V 1609.8453282828282" fill="none" stroke="black" stroke-width="3" class="treeEdge" vector-effect="non-scaling-stroke" id="node#175"></path><path d="M 777.4111822947001 1609.8453282828282 H 707.8130460104834 V 1576.750946969697" fill="none" stroke="black" stroke-width="3" class="treeEdge" vector-effect="non-scaling-stroke" id="node#174"></path><path d="M 707.8130460104834 1576.750946969697 H 638.2149097262667 V 1551.2290088383838" fill="none" stroke="black" stroke-width="3" class="treeEdge" vector-effect="non-scaling-stroke" id="node#172"></path><path d="M 638.2149097262667 1551.2290088383838 H 568.6167734420501 V 1518.2748579545455" fill="none" stroke="black" stroke-width="3" class="treeEdge" vector-effect="non-scaling-stroke" id="node#170"></path><path d="M 1125.4018637157833 1498.7828282828282 H 1055.8037274315668 V 1485.3207070707072" fill="none" stroke="black" stroke-width="3" class="treeEdge" vector-effect="non-scaling-stroke" id="node#167"></path><path d="M 1055.8037274315668 1485.3207070707072 H 568.6167734420501 V 1518.2748579545455" fill="none" stroke="black" stroke-width="3" class="treeEdge" vector-effect="non-scaling-stroke" id="node#165"></path><path d="M 568.6167734420501 1518.2748579545455 H 499.0186371578335 V 1405.8100536616162" fill="none" stroke="black" stroke-width="3" class="treeEdge" vector-effect="non-scaling-stroke" id="node#164"></path><path d="M 1125.4018637157833 1444.9343434343434 H 1055.8037274315668 V 1431.4722222222222" fill="none" stroke="black" stroke-width="3" class="treeEdge" vector-effect="non-scaling-stroke" id="node#161"></path><path d="M 1055.8037274315668 1431.4722222222222 H 986.2055911473501 V 1415.766414141414" fill="none" stroke="black" stroke-width="3" class="treeEdge" vector-effect="non-scaling-stroke" id="node#159"></path><path d="M 986.2055911473501 1415.766414141414 H 916.6074548631334 V 1398.9387626262626" fill="none" stroke="black" stroke-width="3" class="treeEdge" vector-effect="non-scaling-stroke" id="node#157"></path><path d="M 916.6074548631334 1398.9387626262626 H 847.0093185789167 V 1381.5501893939395" fill="none" stroke="black" stroke-width="3" class="treeEdge" vector-effect="non-scaling-stroke" id="node#155"></path><path d="M 847.0093185789167 1381.5501893939395 H 777.4111822947001 V 1350.4190340909092" fill="none" stroke="black" stroke-width="3" class="treeEdge" vector-effect="non-scaling-stroke" id="node#153"></path><path d="M 1125.4018637157833 1337.2373737373737 H 1055.8037274315668 V 1319.2878787878788" fill="none" stroke="black" stroke-width="3" class="treeEdge" vector-effect="non-scaling-stroke" id="node#147"></path><path d="M 1125.4018637157833 1301.3383838383838 H 1055.8037274315668 V 1319.2878787878788" fill="none" stroke="black" stroke-width="3" class="treeEdge" vector-effect="non-scaling-stroke" id="node#150"></path><path d="M 1055.8037274315668 1319.2878787878788 H 777.4111822947001 V 1350.4190340909092" fill="none" stroke="black" stroke-width="3" class="treeEdge" vector-effect="non-scaling-stroke" id="node#146"></path><path d="M 777.4111822947001 1350.4190340909092 H 707.8130460104834 V 1293.3452493686868" fill="none" stroke="black" stroke-width="3" class="treeEdge" vector-effect="non-scaling-stroke" id="node#145"></path><path d="M 1125.4018637157833 1265.439393939394 H 1055.8037274315668 V 1251.9772727272727" fill="none" stroke="black" stroke-width="3" class="treeEdge" vector-effect="non-scaling-stroke" id="node#142"></path><path d="M 1055.8037274315668 1251.9772727272727 H 986.2055911473501 V 1236.2714646464647" fill="none" stroke="black" stroke-width="3" class="treeEdge" vector-effect="non-scaling-stroke" id="node#140"></path><path d="M 986.2055911473501 1236.2714646464647 H 707.8130460104834 V 1293.3452493686868" fill="none" stroke="black" stroke-width="3" class="treeEdge" vector-effect="non-scaling-stroke" id="node#138"></path><path d="M 707.8130460104834 1293.3452493686868 H 499.0186371578335 V 1405.8100536616162" fill="none" stroke="black" stroke-width="3" class="treeEdge" vector-effect="non-scaling-stroke" id="node#137"></path><path d="M 499.0186371578335 1405.8100536616162 H 429.42050087361685 V 1091.573527593645" fill="none" stroke="black" stroke-width="3" class="treeEdge" vector-effect="non-scaling-stroke" id="node#136"></path><path d="M 1125.4018637157833 1193.641414141414 H 1055.8037274315668 V 1175.6919191919192" fill="none" stroke="black" stroke-width="3" class="treeEdge" vector-effect="non-scaling-stroke" id="node#130"></path><path d="M 1125.4018637157833 1157.7424242424242 H 1055.8037274315668 V 1175.6919191919192" fill="none" stroke="black" stroke-width="3" class="treeEdge" vector-effect="non-scaling-stroke" id="node#133"></path><path d="M 1055.8037274315668 1175.6919191919192 H 986.2055911473501 V 1136.8013468013467" fill="none" stroke="black" stroke-width="3" class="treeEdge" vector-effect="non-scaling-stroke" id="node#129"></path><path d="M 1125.4018637157833 1121.8434343434342 H 1055.8037274315668 V 1097.9107744107744" fill="none" stroke="black" stroke-width="3" class="treeEdge" vector-effect="non-scaling-stroke" id="node#126"></path><path d="M 1055.8037274315668 1097.9107744107744 H 986.2055911473501 V 1136.8013468013467" fill="none" stroke="black" stroke-width="3" class="treeEdge" vector-effect="non-scaling-stroke" id="node#122"></path><path d="M 986.2055911473501 1136.8013468013467 H 916.6074548631334 V 1093.4234006734007" fill="none" stroke="black" stroke-width="3" class="treeEdge" vector-effect="non-scaling-stroke" id="node#121"></path><path d="M 1125.4018637157833 1050.0454545454545 H 916.6074548631334 V 1093.4234006734007" fill="none" stroke="black" stroke-width="3" class="treeEdge" vector-effect="non-scaling-stroke" id="node#118"></path><path d="M 916.6074548631334 1093.4234006734007 H 847.0093185789167 V 1001.9557659932659" fill="none" stroke="black" stroke-width="3" class="treeEdge" vector-effect="non-scaling-stroke" id="node#117"></path><path d="M 1125.4018637157833 1014.1464646464647 H 1055.8037274315668 V 1000.6843434343434" fill="none" stroke="black" stroke-width="3" class="treeEdge" vector-effect="non-scaling-stroke" id="node#109"></path><path d="M 1055.8037274315668 1000.6843434343434 H 986.2055911473501 V 941.4510101010102" fill="none" stroke="black" stroke-width="3" class="treeEdge" vector-effect="non-scaling-stroke" id="node#107"></path><path d="M 1125.4018637157833 960.2979797979799 H 986.2055911473501 V 941.4510101010102" fill="none" stroke="black" stroke-width="3" class="treeEdge" vector-effect="non-scaling-stroke" id="node#103"></path><path d="M 986.2055911473501 941.4510101010102 H 916.6074548631334 V 910.4881313131314" fill="none" stroke="black" stroke-width="3" class="treeEdge" vector-effect="non-scaling-stroke" id="node#102"></path><path d="M 916.6074548631334 910.4881313131314 H 847.0093185789167 V 1001.9557659932659" fill="none" stroke="black" stroke-width="3" class="treeEdge" vector-effect="non-scaling-stroke" id="node#100"></path><path d="M 847.0093185789167 1001.9557659932659 H 777.4111822947001 V 931.7657617845117" fill="none" stroke="black" stroke-width="3" class="treeEdge" vector-effect="non-scaling-stroke" id="node#99"></path><path d="M 777.4111822947001 931.7657617845117 H 707.8130460104834 V 887.6960122053871" fill="none" stroke="black" stroke-width="3" class="treeEdge" vector-effect="non-scaling-stroke" id="node#97"></path><path d="M 707.8130460104834 887.6960122053871 H 638.2149097262667 V 856.6863899410774" fill="none" stroke="black" stroke-width="3" class="treeEdge" vector-effect="non-scaling-stroke" id="node#95"></path><path d="M 638.2149097262667 856.6863899410774 H 568.6167734420501 V 818.7447101220539" fill="none" stroke="black" stroke-width="3" class="treeEdge" vector-effect="non-scaling-stroke" id="node#93"></path><path d="M 1125.4018637157833 798.7525252525253 H 1055.8037274315668 V 780.8030303030304" fill="none" stroke="black" stroke-width="3" class="treeEdge" vector-effect="non-scaling-stroke" id="node#87"></path><path d="M 1125.4018637157833 762.8535353535353 H 1055.8037274315668 V 780.8030303030304" fill="none" stroke="black" stroke-width="3" class="treeEdge" vector-effect="non-scaling-stroke" id="node#90"></path><path d="M 1055.8037274315668 780.8030303030304 H 568.6167734420501 V 818.7447101220539" fill="none" stroke="black" stroke-width="3" class="treeEdge" vector-effect="non-scaling-stroke" id="node#86"></path><path d="M 568.6167734420501 818.7447101220539 H 499.0186371578335 V 777.3370015256735" fill="none" stroke="black" stroke-width="3" class="treeEdge" vector-effect="non-scaling-stroke" id="node#85"></path><path d="M 499.0186371578335 777.3370015256735 H 429.42050087361685 V 1091.573527593645" fill="none" stroke="black" stroke-width="3" class="treeEdge" vector-effect="non-scaling-stroke" id="node#83"></path><path d="M 429.42050087361685 1091.573527593645 H 359.82236458940025 V 877.2914986453073" fill="none" stroke="black" stroke-width="3" class="treeEdge" vector-effect="non-scaling-stroke" id="node#82"></path><path d="M 1125.4018637157833 709.0050505050506 H 1055.8037274315668 V 695.5429292929293" fill="none" stroke="black" stroke-width="3" class="treeEdge" vector-effect="non-scaling-stroke" id="node#79"></path><path d="M 1055.8037274315668 695.5429292929293 H 986.2055911473501 V 679.8371212121212" fill="none" stroke="black" stroke-width="3" class="treeEdge" vector-effect="non-scaling-stroke" id="node#77"></path><path d="M 986.2055911473501 679.8371212121212 H 916.6074548631334 V 663.0094696969696" fill="none" stroke="black" stroke-width="3" class="treeEdge" vector-effect="non-scaling-stroke" id="node#75"></path><path d="M 916.6074548631334 663.0094696969696 H 359.82236458940025 V 877.2914986453073" fill="none" stroke="black" stroke-width="3" class="treeEdge" vector-effect="non-scaling-stroke" id="node#73"></path><path d="M 359.82236458940025 877.2914986453073 H 290.2242283051836 V 725.276746797401" fill="none" stroke="black" stroke-width="3" class="treeEdge" vector-effect="non-scaling-stroke" id="node#72"></path><path d="M 1125.4018637157833 619.2575757575756 H 1055.8037274315668 V 605.7954545454544" fill="none" stroke="black" stroke-width="3" class="treeEdge" vector-effect="non-scaling-stroke" id="node#69"></path><path d="M 1055.8037274315668 605.7954545454544 H 986.2055911473501 V 590.0896464646463" fill="none" stroke="black" stroke-width="3" class="treeEdge" vector-effect="non-scaling-stroke" id="node#67"></path><path d="M 986.2055911473501 590.0896464646463 H 916.6074548631334 V 573.2619949494949" fill="none" stroke="black" stroke-width="3" class="treeEdge" vector-effect="non-scaling-stroke" id="node#65"></path><path d="M 916.6074548631334 573.2619949494949 H 290.2242283051836 V 725.276746797401" fill="none" stroke="black" stroke-width="3" class="treeEdge" vector-effect="non-scaling-stroke" id="node#63"></path><path d="M 290.2242283051836 725.276746797401 H 220.62609202096684 V 530.4941972623369" fill="none" stroke="black" stroke-width="3" class="treeEdge" vector-effect="non-scaling-stroke" id="node#62"></path><path d="M 1125.4018637157833 529.510101010101 H 1055.8037274315668 V 516.0479797979799" fill="none" stroke="black" stroke-width="3" class="treeEdge" vector-effect="non-scaling-stroke" id="node#54"></path><path d="M 1055.8037274315668 516.0479797979799 H 986.2055911473501 V 489.12373737373747" fill="none" stroke="black" stroke-width="3" class="treeEdge" vector-effect="non-scaling-stroke" id="node#52"></path><path d="M 1125.4018637157833 475.6616161616163 H 1055.8037274315668 V 462.1994949494951" fill="none" stroke="black" stroke-width="3" class="treeEdge" vector-effect="non-scaling-stroke" id="node#59"></path><path d="M 1055.8037274315668 462.1994949494951 H 986.2055911473501 V 489.12373737373747" fill="none" stroke="black" stroke-width="3" class="treeEdge" vector-effect="non-scaling-stroke" id="node#57"></path><path d="M 986.2055911473501 489.12373737373747 H 916.6074548631334 V 440.8844696969698" fill="none" stroke="black" stroke-width="3" class="treeEdge" vector-effect="non-scaling-stroke" id="node#51"></path><path d="M 1125.4018637157833 421.81313131313146 H 1055.8037274315668 V 408.3510101010103" fill="none" stroke="black" stroke-width="3" class="treeEdge" vector-effect="non-scaling-stroke" id="node#48"></path><path d="M 1055.8037274315668 408.3510101010103 H 986.2055911473501 V 392.64520202020213" fill="none" stroke="black" stroke-width="3" class="treeEdge" vector-effect="non-scaling-stroke" id="node#46"></path><path d="M 986.2055911473501 392.64520202020213 H 916.6074548631334 V 440.8844696969698" fill="none" stroke="black" stroke-width="3" class="treeEdge" vector-effect="non-scaling-stroke" id="node#44"></path><path d="M 916.6074548631334 440.8844696969698 H 847.0093185789167 V 388.71875" fill="none" stroke="black" stroke-width="3" class="treeEdge" vector-effect="non-scaling-stroke" id="node#43"></path><path d="M 1125.4018637157833 350.0151515151516 H 1055.8037274315668 V 336.5530303030304" fill="none" stroke="black" stroke-width="3" class="treeEdge" vector-effect="non-scaling-stroke" id="node#40"></path><path d="M 1055.8037274315668 336.5530303030304 H 847.0093185789167 V 388.71875" fill="none" stroke="black" stroke-width="3" class="treeEdge" vector-effect="non-scaling-stroke" id="node#38"></path><path d="M 847.0093185789167 388.71875 H 777.4111822947001 V 335.7116477272728" fill="none" stroke="black" stroke-width="3" class="treeEdge" vector-effect="non-scaling-stroke" id="node#37"></path><path d="M 1125.4018637157833 296.1666666666668 H 1055.8037274315668 V 282.7045454545456" fill="none" stroke="black" stroke-width="3" class="treeEdge" vector-effect="non-scaling-stroke" id="node#34"></path><path d="M 1055.8037274315668 282.7045454545456 H 777.4111822947001 V 335.7116477272728" fill="none" stroke="black" stroke-width="3" class="treeEdge" vector-effect="non-scaling-stroke" id="node#32"></path><path d="M 777.4111822947001 335.7116477272728 H 220.62609202096684 V 530.4941972623369" fill="none" stroke="black" stroke-width="3" class="treeEdge" vector-effect="non-scaling-stroke" id="node#31"></path><path d="M 220.62609202096684 530.4941972623369 H 151.02795573675022 V 390.893563277633" fill="none" stroke="black" stroke-width="3" class="treeEdge" vector-effect="non-scaling-stroke" id="node#30"></path><path d="M 151.02795573675022 390.893563277633 H 81.4298194525336 V 229.17219988376598" fill="none" stroke="black" stroke-width="3" class="treeEdge" vector-effect="non-scaling-stroke" id="node#28"></path><path d="M 1125.4018637157833 224.36868686868692 H 1055.8037274315668 V 210.90656565656573" fill="none" stroke="black" stroke-width="3" class="treeEdge" vector-effect="non-scaling-stroke" id="node#25"></path><path d="M 1055.8037274315668 210.90656565656573 H 986.2055911473501 V 190.71338383838392" fill="none" stroke="black" stroke-width="3" class="treeEdge" vector-effect="non-scaling-stroke" id="node#23"></path><path d="M 1125.4018637157833 170.52020202020213 H 986.2055911473501 V 190.71338383838392" fill="none" stroke="black" stroke-width="3" class="treeEdge" vector-effect="non-scaling-stroke" id="node#20"></path><path d="M 986.2055911473501 190.71338383838392 H 916.6074548631334 V 167.15467171717174" fill="none" stroke="black" stroke-width="3" class="treeEdge" vector-effect="non-scaling-stroke" id="node#19"></path><path d="M 916.6074548631334 167.15467171717174 H 847.0093185789167 V 135.18213383838375" fill="none" stroke="black" stroke-width="3" class="treeEdge" vector-effect="non-scaling-stroke" id="node#17"></path><path d="M 1125.4018637157833 116.67171717171713 H 1055.8037274315668 V 103.20959595959593" fill="none" stroke="black" stroke-width="3" class="treeEdge" vector-effect="non-scaling-stroke" id="node#14"></path><path d="M 1055.8037274315668 103.20959595959593 H 847.0093185789167 V 135.18213383838375" fill="none" stroke="black" stroke-width="3" class="treeEdge" vector-effect="non-scaling-stroke" id="node#12"></path><path d="M 847.0093185789167 135.18213383838375 H 777.4111822947001 V 103.4900568181818" fill="none" stroke="black" stroke-width="3" class="treeEdge" vector-effect="non-scaling-stroke" id="node#11"></path><path d="M 777.4111822947001 103.4900568181818 H 707.8130460104834 V 67.45083648989893" fill="none" stroke="black" stroke-width="3" class="treeEdge" vector-effect="non-scaling-stroke" id="node#9"></path><path d="M 1125.4018637157833 44.87373737373746 H 1055.8037274315668 V 31.411616161616266" fill="none" stroke="black" stroke-width="3" class="treeEdge" vector-effect="non-scaling-stroke" id="node#6"></path><path d="M 1055.8037274315668 31.411616161616266 H 707.8130460104834 V 67.45083648989893" fill="none" stroke="black" stroke-width="3" class="treeEdge" vector-effect="non-scaling-stroke" id="node#4"></path><path d="M 707.8130460104834 67.45083648989893 H 81.4298194525336 V 229.17219988376598" fill="none" stroke="black" stroke-width="3" class="treeEdge" vector-effect="non-scaling-stroke" id="node#3"></path><path d="M 81.4298194525336 229.17219988376598 H 11.831683168316975 V 114.58609994188299" fill="none" stroke="black" stroke-width="3" class="treeEdge" vector-effect="non-scaling-stroke" id="node#2"></path><path d="M 11.831683168316975 114.58609994188299 H 0 V 114.58609994188299" fill="none" stroke="black" stroke-width="3" class="treeEdge" vector-effect="non-scaling-stroke" id="node#0"></path><text x="1195" y="1777" dominant-baseline="central" transform="matrix(1.21217, 0, 0, 1.04615, 0, 0) matrix(1, 0, 0, 1, -209.166, -78.383)">SAMN06758858.fa</text><text x="1195" y="1759.050505050505" dominant-baseline="central" transform="matrix(1.21217, 0, 0, 1.04615, 0, 0) matrix(1, 0, 0, 1, -209.166, -77.5913)">SAMEA20275918.fa</text><text x="1195" y="1741.1010101010102" dominant-baseline="central" transform="matrix(1.21217, 0, 0, 1.04615, 0, 0) matrix(1, 0, 0, 1, -209.166, -76.7995)">SAMN03479973.fa</text><text x="1195" y="1723.1515151515152" dominant-baseline="central" transform="matrix(1.21217, 0, 0, 1.04615, 0, 0) matrix(1, 0, 0, 1, -209.166, -76.0078)">SAMN06034003.fa</text><text x="1195" y="1705.20202020202" dominant-baseline="central" transform="matrix(1.21217, 0, 0, 1.04615, 0, 0) matrix(1, 0, 0, 1, -209.166, -75.216)">SAMN10241167.fa</text><text x="1195" y="1687.2525252525252" dominant-baseline="central" transform="matrix(1.21217, 0, 0, 1.04615, 0, 0) matrix(1, 0, 0, 1, -209.166, -74.4243)">SAMEA3572894.fa</text><text x="1195" y="1669.3030303030305" dominant-baseline="central" transform="matrix(1.21217, 0, 0, 1.04615, 0, 0) matrix(1, 0, 0, 1, -209.166, -73.6325)">SAMEA4064215.fa</text><text x="1195" y="1651.3535353535353" dominant-baseline="central" transform="matrix(1.21217, 0, 0, 1.04615, 0, 0) matrix(1, 0, 0, 1, -209.166, -72.8408)">SAMN05894824.fa</text><text x="1195" y="1633.4040404040404" dominant-baseline="central" transform="matrix(1.21217, 0, 0, 1.04615, 0, 0) matrix(1, 0, 0, 1, -209.166, -72.049)">SAMN06090728.fa</text><text x="1195" y="1615.4545454545455" dominant-baseline="central" transform="matrix(1.21217, 0, 0, 1.04615, 0, 0) matrix(1, 0, 0, 1, -209.166, -71.2573)">SAMN05201929.fa</text><text x="1195" y="1597.5050505050506" dominant-baseline="central" transform="matrix(1.21217, 0, 0, 1.04615, 0, 0) matrix(1, 0, 0, 1, -209.166, -70.4655)">SAMN09474890.fa</text><text x="1195" y="1579.5555555555554" dominant-baseline="central" transform="matrix(1.21217, 0, 0, 1.04615, 0, 0) matrix(1, 0, 0, 1, -209.166, -69.6738)">SAMN10134229.fa</text><text x="1195" y="1561.6060606060605" dominant-baseline="central" transform="matrix(1.21217, 0, 0, 1.04615, 0, 0) matrix(1, 0, 0, 1, -209.166, -68.882)">SAMN09377484.fa</text><text x="1195" y="1543.6565656565658" dominant-baseline="central" transform="matrix(1.21217, 0, 0, 1.04615, 0, 0) matrix(1, 0, 0, 1, -209.166, -68.0903)">SAMN04600124.fa</text><text x="1195" y="1525.7070707070707" dominant-baseline="central" transform="matrix(1.21217, 0, 0, 1.04615, 0, 0) matrix(1, 0, 0, 1, -209.166, -67.2985)">SAMN07274008.fa</text><text x="1195" y="1507.7575757575758" dominant-baseline="central" transform="matrix(1.21217, 0, 0, 1.04615, 0, 0) matrix(1, 0, 0, 1, -209.166, -66.5068)">SAMN03098741.fa</text><text x="1195" y="1489.8080808080808" dominant-baseline="central" transform="matrix(1.21217, 0, 0, 1.04615, 0, 0) matrix(1, 0, 0, 1, -209.166, -65.715)">SAMN09681767.fa</text><text x="1195" y="1471.858585858586" dominant-baseline="central" transform="matrix(1.21217, 0, 0, 1.04615, 0, 0) matrix(1, 0, 0, 1, -209.166, -64.9233)">SAMN04363045.fa</text><text x="1195" y="1453.9090909090908" dominant-baseline="central" transform="matrix(1.21217, 0, 0, 1.04615, 0, 0) matrix(1, 0, 0, 1, -209.166, -64.1315)">SAMN02767003.fa</text><text x="1195" y="1435.9595959595958" dominant-baseline="central" transform="matrix(1.21217, 0, 0, 1.04615, 0, 0) matrix(1, 0, 0, 1, -209.166, -63.3398)">SAMN08275883.fa</text><text x="1195" y="1418.0101010101012" dominant-baseline="central" transform="matrix(1.21217, 0, 0, 1.04615, 0, 0) matrix(1, 0, 0, 1, -209.166, -62.548)">SAMN07342313.fa</text><text x="1195" y="1400.060606060606" dominant-baseline="central" transform="matrix(1.21217, 0, 0, 1.04615, 0, 0) matrix(1, 0, 0, 1, -209.166, -61.7563)">SAMN06957049.fa</text><text x="1195" y="1382.111111111111" dominant-baseline="central" transform="matrix(1.21217, 0, 0, 1.04615, 0, 0) matrix(1, 0, 0, 1, -209.166, -60.9646)">SAMN02844694.fa</text><text x="1195" y="1364.1616161616162" dominant-baseline="central" transform="matrix(1.21217, 0, 0, 1.04615, 0, 0) matrix(1, 0, 0, 1, -209.166, -60.1728)">SAMN04933547.fa</text><text x="1195" y="1346.2121212121212" dominant-baseline="central" transform="matrix(1.21217, 0, 0, 1.04615, 0, 0) matrix(1, 0, 0, 1, -209.166, -59.3811)">SAMN10079363.fa</text><text x="1195" y="1328.262626262626" dominant-baseline="central" transform="matrix(1.21217, 0, 0, 1.04615, 0, 0) matrix(1, 0, 0, 1, -209.166, -58.5893)">SAMN06333902.fa</text><text x="1195" y="1310.3131313131312" dominant-baseline="central" transform="matrix(1.21217, 0, 0, 1.04615, 0, 0) matrix(1, 0, 0, 1, -209.166, -57.7976)">SAMN07551802.fa</text><text x="1195" y="1292.3636363636365" dominant-baseline="central" transform="matrix(1.21217, 0, 0, 1.04615, 0, 0) matrix(1, 0, 0, 1, -209.166, -57.0058)">SAMN09476521.fa</text><text x="1195" y="1274.4141414141413" dominant-baseline="central" transform="matrix(1.21217, 0, 0, 1.04615, 0, 0) matrix(1, 0, 0, 1, -209.166, -56.2141)">SAMN02345386.fa</text><text x="1195" y="1256.4646464646464" dominant-baseline="central" transform="matrix(1.21217, 0, 0, 1.04615, 0, 0) matrix(1, 0, 0, 1, -209.166, -55.4223)">SAMN08773502.fa</text><text x="1195" y="1238.5151515151515" dominant-baseline="central" transform="matrix(1.21217, 0, 0, 1.04615, 0, 0) matrix(1, 0, 0, 1, -209.166, -54.6306)">SAMN08522210.fa</text><text x="1195" y="1220.5656565656566" dominant-baseline="central" transform="matrix(1.21217, 0, 0, 1.04615, 0, 0) matrix(1, 0, 0, 1, -209.166, -53.8388)">SAMN03798175.fa</text><text x="1195" y="1202.6161616161614" dominant-baseline="central" transform="matrix(1.21217, 0, 0, 1.04615, 0, 0) matrix(1, 0, 0, 1, -209.166, -53.0471)">SAMN08114260.fa</text><text x="1195" y="1184.6666666666667" dominant-baseline="central" transform="matrix(1.21217, 0, 0, 1.04615, 0, 0) matrix(1, 0, 0, 1, -209.166, -52.2553)">SAMN08967090.fa</text><text x="1195" y="1166.7171717171718" dominant-baseline="central" transform="matrix(1.21217, 0, 0, 1.04615, 0, 0) matrix(1, 0, 0, 1, -209.166, -51.4636)">SAMN08828207.fa</text><text x="1195" y="1148.7676767676767" dominant-baseline="central" transform="matrix(1.21217, 0, 0, 1.04615, 0, 0) matrix(1, 0, 0, 1, -209.166, -50.6718)">SAMN05875578.fa</text><text x="1195" y="1130.8181818181818" dominant-baseline="central" transform="matrix(1.21217, 0, 0, 1.04615, 0, 0) matrix(1, 0, 0, 1, -209.166, -49.8801)">SAMN04576714.fa</text><text x="1195" y="1112.8686868686868" dominant-baseline="central" transform="matrix(1.21217, 0, 0, 1.04615, 0, 0) matrix(1, 0, 0, 1, -209.166, -49.0883)">SAMN03359749.fa</text><text x="1195" y="1094.919191919192" dominant-baseline="central" transform="matrix(1.21217, 0, 0, 1.04615, 0, 0) matrix(1, 0, 0, 1, -209.166, -48.2966)">SAMN09650494.fa</text><text x="1195" y="1076.969696969697" dominant-baseline="central" transform="matrix(1.21217, 0, 0, 1.04615, 0, 0) matrix(1, 0, 0, 1, -209.166, -47.5048)">SAMN04883174.fa</text><text x="1195" y="1059.020202020202" dominant-baseline="central" transform="matrix(1.21217, 0, 0, 1.04615, 0, 0) matrix(1, 0, 0, 1, -209.166, -46.7131)">SAMN07455834.fa</text><text x="1195" y="1041.0707070707072" dominant-baseline="central" transform="matrix(1.21217, 0, 0, 1.04615, 0, 0) matrix(1, 0, 0, 1, -209.166, -45.9214)">SAMN09914078.fa</text><text x="1195" y="1023.121212121212" dominant-baseline="central" transform="matrix(1.21217, 0, 0, 1.04615, 0, 0) matrix(1, 0, 0, 1, -209.166, -45.1296)">SAMN08797637.fa</text><text x="1195" y="1005.1717171717171" dominant-baseline="central" transform="matrix(1.21217, 0, 0, 1.04615, 0, 0) matrix(1, 0, 0, 1, -209.166, -44.3379)">SAMN08797658.fa</text><text x="1195" y="987.2222222222223" dominant-baseline="central" transform="matrix(1.21217, 0, 0, 1.04615, 0, 0) matrix(1, 0, 0, 1, -209.166, -43.5461)">SAMN08798113.fa</text><text x="1195" y="969.2727272727273" dominant-baseline="central" transform="matrix(1.21217, 0, 0, 1.04615, 0, 0) matrix(1, 0, 0, 1, -209.166, -42.7544)">SAMN04858548.fa</text><text x="1195" y="951.3232323232323" dominant-baseline="central" transform="matrix(1.21217, 0, 0, 1.04615, 0, 0) matrix(1, 0, 0, 1, -209.166, -41.9626)">SAMN08796047.fa</text><text x="1195" y="933.3737373737374" dominant-baseline="central" transform="matrix(1.21217, 0, 0, 1.04615, 0, 0) matrix(1, 0, 0, 1, -209.166, -41.1709)">SAMN07419683.fa</text><text x="1195" y="915.4242424242424" dominant-baseline="central" transform="matrix(1.21217, 0, 0, 1.04615, 0, 0) matrix(1, 0, 0, 1, -209.166, -40.3791)">SAMN08970397.fa</text><text x="1195" y="897.4747474747473" dominant-baseline="central" transform="matrix(1.21217, 0, 0, 1.04615, 0, 0) matrix(1, 0, 0, 1, -209.166, -39.5874)">SAMEA4969793.fa</text><text x="1195" y="879.5252525252524" dominant-baseline="central" transform="matrix(1.21217, 0, 0, 1.04615, 0, 0) matrix(1, 0, 0, 1, -209.166, -38.7956)">SAMN08798105.fa</text><text x="1195" y="861.5757575757576" dominant-baseline="central" transform="matrix(1.21217, 0, 0, 1.04615, 0, 0) matrix(1, 0, 0, 1, -209.166, -38.0039)">SAMEA25964668.fa</text><text x="1195" y="843.6262626262626" dominant-baseline="central" transform="matrix(1.21217, 0, 0, 1.04615, 0, 0) matrix(1, 0, 0, 1, -209.166, -37.2121)">SAMN07718808.fa</text><text x="1195" y="825.6767676767677" dominant-baseline="central" transform="matrix(1.21217, 0, 0, 1.04615, 0, 0) matrix(1, 0, 0, 1, -209.166, -36.4204)">SAMN03476448.fa</text><text x="1195" y="807.7272727272727" dominant-baseline="central" transform="matrix(1.21217, 0, 0, 1.04615, 0, 0) matrix(1, 0, 0, 1, -209.166, -35.6286)">SAMN04600462.fa</text><text x="1195" y="789.7777777777777" dominant-baseline="central" transform="matrix(1.21217, 0, 0, 1.04615, 0, 0) matrix(1, 0, 0, 1, -209.166, -34.8369)">SAMN09244213.fa</text><text x="1195" y="771.8282828282829" dominant-baseline="central" transform="matrix(1.21217, 0, 0, 1.04615, 0, 0) matrix(1, 0, 0, 1, -209.166, -34.0451)">SAMN03479280.fa</text><text x="1195" y="753.8787878787878" dominant-baseline="central" transform="matrix(1.21217, 0, 0, 1.04615, 0, 0) matrix(1, 0, 0, 1, -209.166, -33.2534)">SAMN09463346.fa</text><text x="1195" y="735.929292929293" dominant-baseline="central" transform="matrix(1.21217, 0, 0, 1.04615, 0, 0) matrix(1, 0, 0, 1, -209.166, -32.4616)">SAMN02894000.fa</text><text x="1195" y="717.979797979798" dominant-baseline="central" transform="matrix(1.21217, 0, 0, 1.04615, 0, 0) matrix(1, 0, 0, 1, -209.166, -31.6699)">SAMN08326657.fa</text><text x="1195" y="700.030303030303" dominant-baseline="central" transform="matrix(1.21217, 0, 0, 1.04615, 0, 0) matrix(1, 0, 0, 1, -209.166, -30.8782)">SAMN06250983.fa</text><text x="1195" y="682.0808080808081" dominant-baseline="central" transform="matrix(1.21217, 0, 0, 1.04615, 0, 0) matrix(1, 0, 0, 1, -209.166, -30.0864)">SAMN08239874.fa</text><text x="1195" y="664.131313131313" dominant-baseline="central" transform="matrix(1.21217, 0, 0, 1.04615, 0, 0) matrix(1, 0, 0, 1, -209.166, -29.2947)">SAMN07518806.fa</text><text x="1195" y="646.1818181818182" dominant-baseline="central" transform="matrix(1.21217, 0, 0, 1.04615, 0, 0) matrix(1, 0, 0, 1, -209.166, -28.5029)">SAMN07812441.fa</text><text x="1195" y="628.2323232323231" dominant-baseline="central" transform="matrix(1.21217, 0, 0, 1.04615, 0, 0) matrix(1, 0, 0, 1, -209.166, -27.7112)">SAMN07528637.fa</text><text x="1195" y="610.2828282828283" dominant-baseline="central" transform="matrix(1.21217, 0, 0, 1.04615, 0, 0) matrix(1, 0, 0, 1, -209.166, -26.9194)">SAMEA4731308.fa</text><text x="1195" y="592.3333333333334" dominant-baseline="central" transform="matrix(1.21217, 0, 0, 1.04615, 0, 0) matrix(1, 0, 0, 1, -209.166, -26.1277)">SAMEA2228078.fa</text><text x="1195" y="574.3838383838383" dominant-baseline="central" transform="matrix(1.21217, 0, 0, 1.04615, 0, 0) matrix(1, 0, 0, 1, -209.166, -25.3359)">SAMEA1572008.fa</text><text x="1195" y="556.4343434343434" dominant-baseline="central" transform="matrix(1.21217, 0, 0, 1.04615, 0, 0) matrix(1, 0, 0, 1, -209.166, -24.5442)">SAMN07342214.fa</text><text x="1195" y="538.4848484848484" dominant-baseline="central" transform="matrix(1.21217, 0, 0, 1.04615, 0, 0) matrix(1, 0, 0, 1, -209.166, -23.7524)">SAMN02844541.fa</text><text x="1195" y="520.5353535353536" dominant-baseline="central" transform="matrix(1.21217, 0, 0, 1.04615, 0, 0) matrix(1, 0, 0, 1, -209.166, -22.9607)">SAMN08001085.fa</text><text x="1195" y="502.58585858585866" dominant-baseline="central" transform="matrix(1.21217, 0, 0, 1.04615, 0, 0) matrix(1, 0, 0, 1, -209.166, -22.1689)">SAMN03573394.fa</text><text x="1195" y="484.6363636363636" dominant-baseline="central" transform="matrix(1.21217, 0, 0, 1.04615, 0, 0) matrix(1, 0, 0, 1, -209.166, -21.3772)">SAMN02403422.fa</text><text x="1195" y="466.6868686868687" dominant-baseline="central" transform="matrix(1.21217, 0, 0, 1.04615, 0, 0) matrix(1, 0, 0, 1, -209.166, -20.5854)">SAMN03431311.fa</text><text x="1195" y="448.7373737373737" dominant-baseline="central" transform="matrix(1.21217, 0, 0, 1.04615, 0, 0) matrix(1, 0, 0, 1, -209.166, -19.7937)">SAMN02844446.fa</text><text x="1195" y="430.7878787878788" dominant-baseline="central" transform="matrix(1.21217, 0, 0, 1.04615, 0, 0) matrix(1, 0, 0, 1, -209.166, -19.0019)">SAMN03269463.fa</text><text x="1195" y="412.83838383838395" dominant-baseline="central" transform="matrix(1.21217, 0, 0, 1.04615, 0, 0) matrix(1, 0, 0, 1, -209.166, -18.2102)">SAMN06602845.fa</text><text x="1195" y="394.88888888888886" dominant-baseline="central" transform="matrix(1.21217, 0, 0, 1.04615, 0, 0) matrix(1, 0, 0, 1, -209.166, -17.4184)">SAMN09651392.fa</text><text x="1195" y="376.939393939394" dominant-baseline="central" transform="matrix(1.21217, 0, 0, 1.04615, 0, 0) matrix(1, 0, 0, 1, -209.166, -16.6267)">SAMN09848253.fa</text><text x="1195" y="358.98989898989896" dominant-baseline="central" transform="matrix(1.21217, 0, 0, 1.04615, 0, 0) matrix(1, 0, 0, 1, -209.166, -15.8349)">SAMN07420420.fa</text><text x="1195" y="341.04040404040404" dominant-baseline="central" transform="matrix(1.21217, 0, 0, 1.04615, 0, 0) matrix(1, 0, 0, 1, -209.166, -15.0432)">SAMN07500625.fa</text><text x="1195" y="323.090909090909" dominant-baseline="central" transform="matrix(1.21217, 0, 0, 1.04615, 0, 0) matrix(1, 0, 0, 1, -209.166, -14.2515)">SAMN07734921.fa</text><text x="1195" y="305.14141414141415" dominant-baseline="central" transform="matrix(1.21217, 0, 0, 1.04615, 0, 0) matrix(1, 0, 0, 1, -209.166, -13.4597)">SAMN04518085.fa</text><text x="1195" y="287.1919191919193" dominant-baseline="central" transform="matrix(1.21217, 0, 0, 1.04615, 0, 0) matrix(1, 0, 0, 1, -209.166, -12.668)">SAMN06899404.fa</text><text x="1195" y="269.2424242424242" dominant-baseline="central" transform="matrix(1.21217, 0, 0, 1.04615, 0, 0) matrix(1, 0, 0, 1, -209.166, -11.8762)">SAMN07180545.fa</text><text x="1195" y="251.29292929292933" dominant-baseline="central" transform="matrix(1.21217, 0, 0, 1.04615, 0, 0) matrix(1, 0, 0, 1, -209.166, -11.0845)">SAMN07816686.fa</text><text x="1195" y="233.34343434343427" dominant-baseline="central" transform="matrix(1.21217, 0, 0, 1.04615, 0, 0) matrix(1, 0, 0, 1, -209.166, -10.2927)">SAMN03959556.fa</text><text x="1195" y="215.3939393939394" dominant-baseline="central" transform="matrix(1.21217, 0, 0, 1.04615, 0, 0) matrix(1, 0, 0, 1, -209.166, -9.50097)">SAMN03702093.fa</text><text x="1195" y="197.44444444444454" dominant-baseline="central" transform="matrix(1.21217, 0, 0, 1.04615, 0, 0) matrix(1, 0, 0, 1, -209.166, -8.70922)">SAMN02368524.fa</text><text x="1195" y="179.49494949494948" dominant-baseline="central" transform="matrix(1.21217, 0, 0, 1.04615, 0, 0) matrix(1, 0, 0, 1, -209.166, -7.91747)">SAMN02645730.fa</text><text x="1195" y="161.5454545454546" dominant-baseline="central" transform="matrix(1.21217, 0, 0, 1.04615, 0, 0) matrix(1, 0, 0, 1, -209.166, -7.12573)">SAMN06346037.fa</text><text x="1195" y="143.59595959595953" dominant-baseline="central" transform="matrix(1.21217, 0, 0, 1.04615, 0, 0) matrix(1, 0, 0, 1, -209.166, -6.33398)">SAMEA4064249.fa</text><text x="1195" y="125.64646464646466" dominant-baseline="central" transform="matrix(1.21217, 0, 0, 1.04615, 0, 0) matrix(1, 0, 0, 1, -209.166, -5.54223)">SAMN03861576.fa</text><text x="1195" y="107.6969696969696" dominant-baseline="central" transform="matrix(1.21217, 0, 0, 1.04615, 0, 0) matrix(1, 0, 0, 1, -209.166, -4.75048)">SAMN07812345.fa</text><text x="1195" y="89.74747474747474" dominant-baseline="central" transform="matrix(1.21217, 0, 0, 1.04615, 0, 0) matrix(1, 0, 0, 1, -209.166, -3.95874)">SAMN07702427.fa</text><text x="1195" y="71.79797979797986" dominant-baseline="central" transform="matrix(1.21217, 0, 0, 1.04615, 0, 0) matrix(1, 0, 0, 1, -209.166, -3.16699)">SAMEA91129168.fa</text><text x="1195" y="53.8484848484848" dominant-baseline="central" transform="matrix(1.21217, 0, 0, 1.04615, 0, 0) matrix(1, 0, 0, 1, -209.166, -2.37524)">SAMN04455177.fa</text><text x="1195" y="35.89898989898993" dominant-baseline="central" transform="matrix(1.21217, 0, 0, 1.04615, 0, 0) matrix(1, 0, 0, 1, -209.166, -1.5835)">SAMN04901736.fa</text><text x="1195" y="17.949494949494866" dominant-baseline="central" transform="matrix(1.21217, 0, 0, 1.04615, 0, 0) matrix(1, 0, 0, 1, -209.166, -0.791748)">SAMN10366346.fa</text><text x="1195" y="0" dominant-baseline="central" transform="matrix(1.21217, 0, 0, 1.04615, 0, 0) matrix(1, 0, 0, 1, -209.166, -0)">SAMN03477196.fa</text></svg>